<?xml version="1.0" standalone="no"?>
<!DOCTYPE svg PUBLIC "-//W3C//DTD SVG 20010904//EN"
 "http://www.w3.org/TR/2001/REC-SVG-20010904/DTD/svg10.dtd">
<svg version="1.0" xmlns="http://www.w3.org/2000/svg"
 width="500.000000pt" height="500.000000pt" viewBox="0 0 500.000000 500.000000"
 preserveAspectRatio="xMidYMid meet">

<g transform="translate(0.000000,500.000000) scale(0.100000,-0.100000)"
fill="#000000" stroke="none">
<path d="M2333 4799 l-158 -190 -45 8 c-83 15 -250 9 -310 -11 -212 -71 -320
-198 -351 -412 l-11 -74 -149 0 -149 0 0 -150 0 -150 -32 0 c-17 0 -61 -7 -97
-16 -201 -49 -330 -194 -368 -413 -14 -76 -15 -106 -6 -169 7 -42 14 -84 18
-92 4 -11 -50 -62 -190 -178 -107 -89 -195 -165 -195 -169 1 -5 89 -80 196
-168 116 -95 192 -165 189 -172 -15 -40 -27 -154 -21 -208 15 -150 61 -257
148 -345 76 -77 209 -139 298 -140 19 0 40 -4 47 -8 9 -5 13 -52 15 -152 l3
-145 147 -3 147 -3 6 -47 c27 -201 130 -342 304 -412 116 -48 230 -55 376 -25
29 5 36 -1 185 -184 85 -104 160 -191 166 -194 6 -3 83 82 170 189 152 185
160 193 189 188 154 -28 249 -22 367 22 174 65 281 199 310 387 l12 77 148 0
147 0 3 152 3 153 40 3 c117 7 232 59 313 140 124 124 177 316 138 500 l-13
64 66 56 c36 32 123 104 194 162 70 57 127 108 127 112 0 4 -87 80 -193 169
l-193 161 14 66 c26 123 -3 303 -64 409 -75 127 -255 233 -398 233 l-36 0 0
150 0 150 -149 0 -149 0 -7 58 c-25 213 -143 359 -345 428 -60 20 -222 26
-315 11 l-50 -7 -155 189 c-85 104 -161 190 -167 190 -7 1 -84 -85 -170 -190z
m326 -54 c84 -102 158 -185 164 -185 7 1 39 7 72 15 213 52 448 -45 543 -223
27 -51 37 -88 60 -227 l7 -40 147 -3 147 -3 3 -146 3 -147 87 -12 c133 -20
223 -63 293 -143 90 -102 137 -266 115 -398 -6 -37 -14 -84 -17 -103 l-5 -36
186 -154 c102 -84 186 -154 186 -155 0 -1 -84 -71 -186 -156 -210 -174 -189
-137 -164 -292 18 -105 -13 -248 -73 -344 -74 -117 -223 -203 -354 -203 -75 0
-73 5 -73 -156 l0 -143 -147 -3 -148 -3 -7 -40 c-23 -136 -33 -175 -59 -227
-48 -96 -137 -171 -248 -210 -80 -28 -219 -34 -304 -14 -38 9 -70 16 -71 16
-2 0 -72 -83 -156 -185 -84 -102 -156 -185 -159 -185 -4 0 -74 81 -155 180
-82 99 -152 182 -155 184 -4 3 -33 -2 -66 -10 -161 -37 -361 6 -472 103 -76
67 -143 212 -143 310 0 83 -1 83 -165 83 l-144 0 -3 147 -3 148 -65 6 c-218
19 -363 141 -416 349 -16 63 -15 198 2 300 l6 35 -187 154 c-102 85 -182 157
-178 161 4 4 88 73 186 154 l179 148 -6 36 c-4 21 -9 78 -12 127 -19 285 132
479 402 518 l89 13 5 145 5 144 140 3 c158 3 165 6 165 76 0 23 6 64 14 91 47
178 168 291 351 330 90 19 138 19 231 -1 68 -14 78 -14 93 0 9 8 79 91 156
185 77 93 142 170 145 170 3 1 75 -82 159 -184z"/>
<path d="M2366 4649 c-64 -66 -124 -131 -132 -144 -16 -25 -11 -48 10 -43 6 2
62 58 124 125 62 67 118 126 125 130 7 4 61 -45 138 -126 116 -121 149 -145
149 -107 0 21 -260 286 -280 286 -10 0 -70 -54 -134 -121z"/>
<path d="M2438 4580 c-14 -11 -28 -32 -31 -47 -7 -35 18 -107 51 -150 l25 -34
-23 -24 c-36 -38 -89 -58 -170 -64 -86 -7 -90 -13 -69 -89 15 -56 77 -122 114
-122 34 0 32 26 -4 44 -29 15 -71 75 -71 101 0 8 17 16 43 20 69 11 136 35
167 62 l30 24 33 -25 c44 -34 91 -52 155 -61 39 -5 52 -11 52 -23 0 -28 -37
-80 -70 -97 -37 -19 -40 -45 -5 -45 56 0 131 107 123 176 -3 28 -5 29 -65 32
l-61 3 39 59 c66 100 141 139 267 140 168 0 290 -69 360 -206 25 -50 34 -97
36 -188 l1 -71 172 -3 173 -2 2 -173 3 -172 61 3 c132 8 264 -53 329 -151 124
-186 91 -419 -73 -519 -21 -12 -40 -27 -44 -32 -4 -6 -9 5 -10 24 -1 33 -3 60
-7 88 -2 19 -66 14 -116 -9 -66 -31 -108 -96 -78 -121 13 -10 17 -11 21 0 12
38 92 102 125 102 3 0 7 -26 11 -57 7 -61 42 -149 68 -171 14 -11 12 -18 -17
-62 -32 -47 -55 -122 -55 -175 0 -14 -5 -25 -10 -25 -28 0 -90 43 -109 76 -17
29 -24 34 -36 24 -11 -9 -12 -18 -4 -38 20 -53 77 -93 151 -107 40 -8 52 3 54
45 2 86 4 94 17 78 6 -8 29 -25 49 -37 86 -51 138 -152 138 -269 0 -157 -79
-291 -207 -354 -58 -28 -78 -33 -165 -36 l-98 -4 0 -169 0 -169 -162 0 c-90 0
-168 -4 -174 -8 -7 -4 -12 -39 -12 -87 0 -91 -20 -159 -64 -223 -79 -115 -251
-181 -394 -152 -101 21 -159 62 -210 149 -20 34 -54 42 -54 14 0 -29 72 -115
124 -150 117 -79 270 -84 419 -13 136 64 227 215 227 375 l0 45 170 0 170 0 0
175 0 175 63 0 c163 0 293 82 365 231 71 146 57 331 -33 437 -36 43 -124 102
-141 95 -31 -12 -3 56 38 95 l25 22 58 -35 c85 -51 152 -49 180 6 22 42 18 83
-11 118 -35 42 -73 41 -163 -5 -80 -42 -87 -40 -122 27 -22 44 -24 60 -6 54
20 -8 122 62 151 104 97 140 91 346 -14 494 -46 64 -138 130 -213 152 -28 8
-79 15 -114 15 l-63 0 0 170 0 170 -169 0 -168 0 -6 79 c-11 142 -70 248 -179
321 -82 55 -153 75 -258 74 -101 -1 -176 -26 -238 -80 -49 -41 -97 -117 -88
-139 3 -8 1 -15 -5 -15 -18 0 -83 37 -102 58 -18 20 -18 21 12 63 36 49 54
107 45 144 -15 60 -105 86 -156 45z m93 -30 c26 -14 25 -62 -3 -111 -12 -22
-25 -39 -29 -39 -12 0 -49 84 -49 111 0 44 37 62 81 39z m1729 -1730 c11 -11
20 -26 20 -33 0 -22 -31 -57 -51 -57 -29 0 -110 41 -106 54 3 12 84 56 104 56
7 0 22 -9 33 -20z"/>
<path d="M1960 4504 c-46 -8 -144 -47 -182 -70 -116 -73 -188 -213 -188 -366
l0 -38 -170 0 -170 0 0 -170 0 -170 -59 0 c-190 0 -353 -131 -401 -323 -18
-69 -9 -211 17 -268 46 -104 203 -223 203 -155 0 7 -18 22 -39 34 -213 120
-195 473 32 618 52 34 150 57 213 51 28 -3 56 -2 62 2 8 5 12 62 14 171 l3
165 170 5 170 5 6 101 c6 123 34 188 109 258 77 72 146 100 257 104 147 6 235
-37 298 -144 14 -25 32 -43 38 -41 63 20 -82 186 -191 217 -43 12 -156 21
-192 14z"/>
<path d="M2135 4358 c-13 -29 -29 -81 -36 -116 -12 -56 -11 -72 4 -130 31
-116 92 -182 177 -190 58 -5 103 16 126 60 32 62 13 243 -24 236 -11 -2 -16
-12 -15 -28 2 -14 6 -53 9 -87 12 -110 -32 -159 -116 -134 -119 35 -157 233
-76 389 21 41 20 52 -5 52 -15 0 -26 -14 -44 -52z"/>
<path d="M2805 4400 c-3 -5 4 -27 15 -50 37 -73 53 -154 40 -213 -14 -69 -47
-126 -89 -154 -47 -32 -86 -30 -122 6 -24 24 -29 38 -29 76 0 25 5 66 11 91
14 55 0 80 -29 51 -14 -15 -17 -36 -17 -118 l0 -100 39 -36 c36 -33 42 -35 91
-31 63 5 106 34 146 96 41 65 55 139 42 218 -19 112 -74 203 -98 164z"/>
<path d="M3052 4382 c-26 -8 -10 -32 35 -52 61 -27 79 -44 111 -105 25 -46 27
-58 25 -160 -1 -60 -4 -123 -5 -140 l-3 -30 197 -3 198 -2 2 -198 c3 -191 4
-197 23 -194 11 2 61 5 111 9 162 10 249 -28 298 -131 32 -67 62 -78 53 -20
-13 78 -97 160 -191 185 -43 12 -204 14 -237 4 -18 -6 -19 0 -19 189 l0 196
-192 0 -193 0 0 128 c0 119 -2 131 -28 184 -16 32 -44 71 -63 87 -39 32 -103
60 -122 53z"/>
<path d="M1863 4350 c-98 -56 -128 -126 -128 -298 l0 -122 -192 0 -193 0 0
-196 c0 -123 -4 -193 -10 -189 -5 3 -52 6 -104 6 -110 1 -184 -17 -242 -59
-46 -34 -101 -129 -91 -156 11 -28 29 -14 59 44 53 103 128 136 287 127 53 -3
105 -7 116 -9 19 -3 20 4 25 192 l5 195 195 5 195 5 -3 30 c-1 17 -4 77 -5
135 -1 88 1 112 19 150 27 57 67 98 122 122 45 20 57 48 20 48 -13 0 -46 -14
-75 -30z"/>
<path d="M1955 4251 c-76 -43 -100 -93 -99 -201 0 -50 7 -108 17 -139 9 -30
17 -58 17 -63 0 -4 -101 -8 -225 -8 l-225 0 0 -225 c0 -124 -1 -225 -2 -225
-2 0 -32 9 -66 20 -145 45 -285 15 -337 -74 -31 -53 -36 -89 -13 -94 13 -2 22
8 34 37 18 46 71 97 110 107 44 11 166 -3 237 -26 37 -13 71 -20 75 -16 4 4 7
107 7 229 l0 222 228 3 c191 2 227 5 227 17 0 8 -11 54 -25 101 -49 170 -22
265 92 315 31 13 41 22 37 34 -9 22 -33 18 -89 -14z"/>
<path d="M2960 4264 c0 -13 17 -27 53 -44 90 -43 118 -136 82 -274 -20 -78
-21 -79 -52 -50 -21 19 -36 24 -66 22 -56 -4 -64 -22 -48 -100 17 -85 34 -114
76 -129 l35 -13 -21 -23 c-20 -20 -24 -21 -43 -8 -28 20 -31 20 -76 -22 l-41
-36 -37 18 c-60 29 -175 32 -247 5 -70 -27 -137 -89 -167 -158 -41 -92 -33
-216 17 -294 l25 -37 -49 -58 c-27 -33 -65 -68 -85 -78 -25 -14 -40 -32 -51
-60 -10 -28 -14 -32 -12 -13 6 45 -12 146 -33 188 -17 33 -20 59 -20 169 l0
129 61 56 c45 41 60 60 55 72 -6 15 -18 6 -71 -46 l-65 -64 0 -130 0 -130 -35
34 -35 34 0 95 0 96 82 82 83 83 -270 0 -270 -1 73 -69 73 -69 -3 -92 -3 -92
-38 -13 c-90 -31 -164 -112 -192 -209 -9 -29 -24 -69 -35 -90 -24 -47 -25 -64
-5 -111 10 -25 26 -40 58 -54 54 -24 80 -50 50 -50 -35 0 -83 -21 -94 -41 -5
-11 -16 -50 -23 -87 -9 -47 -24 -84 -49 -121 -52 -75 -57 -112 -20 -164 37
-53 74 -68 113 -45 28 16 28 16 32 -14 3 -17 -3 -42 -14 -61 -60 -105 -61
-141 -3 -202 29 -31 39 -36 77 -35 23 1 57 -2 73 -5 23 -5 35 -2 49 14 18 20
28 21 278 21 l260 0 -19 24 c-10 13 -53 65 -95 115 l-78 92 0 158 0 159 90
111 c50 60 95 113 101 116 8 6 296 -563 287 -569 -2 -2 -34 -26 -72 -54 l-69
-52 294 0 294 0 -91 59 -91 59 -60 113 c-33 63 -113 216 -176 340 l-117 226
25 23 24 22 185 -371 186 -370 122 -83 123 -83 -335 -5 c-275 -4 -331 -7 -313
-17 16 -10 113 -13 385 -13 l363 0 -162 108 -163 108 -186 377 c-182 366 -186
377 -171 400 12 18 27 26 56 29 48 4 57 -9 24 -39 -26 -25 -31 -77 -9 -106 21
-27 78 -40 124 -27 120 32 189 149 149 252 -19 48 -15 60 19 52 34 -9 126 81
117 114 -8 33 22 62 66 62 87 1 142 51 170 156 8 31 17 43 36 48 57 14 90 84
56 120 -11 11 -21 37 -23 56 l-3 35 -55 0 c-52 0 -55 -1 -58 -27 -2 -18 -12
-30 -31 -38 -25 -10 -51 -46 -51 -70 0 -5 -5 -21 -10 -35 -8 -22 -13 -25 -24
-16 -12 10 -12 20 0 64 18 67 18 125 0 160 l-15 27 155 0 154 0 0 -230 c0
-177 3 -230 13 -230 6 0 37 10 67 22 43 17 77 22 155 22 89 1 104 -2 132 -22
18 -13 43 -45 55 -72 13 -28 29 -50 36 -50 45 0 -2 109 -67 155 -37 26 -53 30
-119 33 -68 3 -154 -10 -217 -34 -13 -5 -15 21 -15 220 l0 226 -212 0 c-117 0
-219 4 -226 8 -10 7 -9 18 4 53 26 68 25 223 -1 273 -24 45 -86 93 -132 102
-28 5 -33 4 -33 -12z m69 -371 c11 -10 27 -36 35 -58 11 -29 15 -34 15 -17 1
19 5 22 29 16 91 -21 136 -75 95 -115 -26 -26 -85 -38 -139 -27 l-41 9 -6 56
c-3 31 -17 78 -30 104 l-24 49 22 0 c13 0 32 -8 44 -17z m-64 -13 c3 -5 -1
-10 -9 -10 -9 0 -16 5 -16 10 0 6 4 10 9 10 6 0 13 -4 16 -10z m15 -40 c0 -5
-9 -10 -20 -10 -11 0 -20 5 -20 10 0 6 9 10 20 10 11 0 20 -4 20 -10z m16 -41
c3 -5 -6 -9 -20 -9 -16 0 -26 6 -26 14 0 15 36 11 46 -5z m4 -39 c0 -5 -9 -10
-20 -10 -11 0 -20 5 -20 10 0 6 9 10 20 10 11 0 20 -4 20 -10z m10 -40 c0 -5
-4 -10 -9 -10 -6 0 -13 5 -16 10 -3 6 1 10 9 10 9 0 16 -4 16 -10z m210 -86
c-8 -39 -19 -68 -29 -74 -13 -8 -14 -9 -1 -10 8 0 29 -12 45 -27 16 -16 33
-27 38 -25 5 1 6 -8 2 -20 -4 -17 -4 -19 3 -9 8 11 13 7 26 -17 38 -74 9 -112
-88 -112 -33 0 -56 -3 -53 -6 4 -4 -3 -20 -14 -36 -24 -33 -28 -32 -46 20 -12
36 -11 38 22 72 52 53 47 72 -40 155 -41 39 -72 75 -68 78 10 11 72 8 96 -4
22 -10 22 -10 2 6 -11 9 -33 19 -48 22 -44 9 -17 25 46 26 39 2 64 8 84 23 15
12 30 17 32 12 1 -5 -2 -38 -9 -74z m216 17 c23 -10 44 -24 48 -29 11 -18 -16
-63 -48 -79 -28 -14 -30 -14 -48 8 l-19 24 11 -24 c14 -28 0 -93 -30 -143
l-20 -33 0 30 c0 31 -16 61 -56 105 -23 25 -23 26 -8 78 24 80 84 102 170 63z
m-439 -43 l32 -33 -39 -42 c-38 -40 -40 -41 -51 -21 -9 17 -6 25 15 47 24 25
25 28 9 44 -16 16 -19 15 -45 -10 -37 -36 -49 -21 -13 17 37 38 54 38 92 -2z
m-178 -22 c46 -24 92 -67 123 -115 24 -39 37 -81 24 -81 -2 0 -11 -3 -20 -6
-11 -4 -21 7 -36 40 -41 86 -142 158 -247 173 l-48 8 45 5 c54 6 119 -4 159
-24z m141 -2 c0 -9 -9 -18 -20 -21 -11 -3 -17 -9 -14 -14 3 -5 1 -9 -5 -9 -21
0 -22 22 0 41 27 23 39 24 39 3z m-224 -16 c82 -35 165 -122 176 -182 5 -33
-17 -28 -30 7 -33 93 -144 167 -249 167 -59 0 -127 -24 -168 -58 -11 -9 -6 -2
10 17 47 52 99 73 171 67 33 -3 74 -11 90 -18z m343 -34 c30 -38 26 -66 -17
-114 -44 -50 -55 -48 -83 18 l-20 45 38 39 c20 21 43 38 49 38 7 0 22 -12 33
-26z m-404 -33 c16 -6 8 -11 -35 -20 -118 -25 -179 -90 -180 -191 -1 -44 -1
-44 -15 -20 -18 31 -18 61 -3 114 14 46 75 112 110 119 38 7 102 6 123 -2z
m468 -41 c7 -26 -46 -90 -73 -90 -11 0 -22 -4 -25 -10 -3 -5 -11 -10 -16 -10
-6 0 12 27 40 61 28 33 51 65 51 70 0 17 17 1 23 -21z m-333 -84 c28 -34 -11
-94 -44 -67 -16 13 -22 62 -9 74 11 12 40 8 53 -7z m170 -6 c13 -8 13 -10 -2
-10 -9 0 -26 -12 -37 -26 -27 -34 -29 -115 -4 -135 15 -13 16 -12 8 6 -4 11
-10 37 -13 58 -3 30 1 44 19 63 27 28 36 30 61 7 23 -20 24 -90 2 -121 -8 -12
-26 -22 -40 -22 -13 0 -24 -5 -24 -10 0 -20 -39 10 -56 42 -21 41 -11 93 26
130 31 31 37 33 60 18z m114 -72 c9 -29 11 -50 4 -61 -14 -26 -28 -20 -28 11
-1 15 -7 38 -14 52 -10 17 -11 30 -4 43 13 25 26 12 42 -45z m-272 -43 c0 -5
-5 -11 -11 -13 -6 -2 -11 4 -11 13 0 9 5 15 11 13 6 -2 11 -8 11 -13z m238
-24 c0 -21 -9 -36 -36 -56 -45 -35 -54 -27 -14 13 16 17 30 40 30 51 0 12 5
21 10 21 6 0 10 -13 10 -29z m36 -38 c-25 -24 -51 -41 -56 -38 -6 4 9 22 33
40 25 19 48 42 52 52 6 14 8 15 13 4 3 -9 -14 -32 -42 -58z m-1131 47 c-3 -5
-14 -10 -23 -10 -33 0 -118 -48 -159 -89 -23 -23 -51 -66 -64 -95 -17 -43 -26
-53 -45 -53 -20 0 -23 3 -18 26 24 106 120 199 225 220 62 12 91 13 84 1z
m141 -46 c22 -12 47 -31 55 -40 8 -10 -5 -5 -31 11 -58 37 -136 44 -211 20
-72 -24 -152 -103 -172 -171 -11 -37 -17 -45 -22 -31 -19 47 65 166 149 209
46 23 118 37 161 30 17 -2 48 -15 71 -28z m759 -58 c-15 -20 -54 -49 -88 -66
-75 -37 -156 -41 -217 -10 -50 26 -51 32 -2 14 114 -41 255 10 310 111 15 28
17 29 20 8 2 -13 -8 -37 -23 -57z m59 25 c9 -14 -42 -70 -85 -91 -54 -28 -58
-25 -13 11 21 16 47 43 59 59 21 31 30 36 39 21z m-815 -37 c62 -37 104 -141
80 -199 l-13 -30 -6 50 c-15 113 -51 146 -183 169 l-72 13 35 11 c45 14 122 8
159 -14z m881 -6 c28 -46 27 -62 -2 -47 -13 7 -36 15 -51 18 l-29 6 22 28 c28
35 36 34 60 -5z m-110 -57 c-12 -23 -29 -35 -37 -27 -3 3 5 14 18 25 30 25 32
26 19 2z m108 -7 c39 -26 25 -101 -30 -150 -87 -80 -218 -69 -218 17 0 22 7
34 29 47 22 13 27 22 20 32 -5 8 -9 18 -9 23 0 13 47 7 60 -8 11 -13 17 -10
43 26 25 34 34 40 56 34 14 -3 36 -13 49 -21z m-376 -33 l57 -16 -17 -28 c-18
-29 -32 -35 -32 -14 0 16 -34 48 -75 71 -16 10 -21 14 -10 10 11 -4 46 -14 77
-23z m-72 -1 c15 0 70 -64 70 -81 0 -43 -171 -140 -216 -122 -8 3 -14 18 -14
35 0 16 4 27 9 24 4 -3 6 6 3 21 -5 24 -3 25 24 20 27 -5 27 -4 9 9 -22 17
-32 18 -40 4 -3 -5 -12 -10 -18 -10 -16 0 -39 58 -26 65 11 7 41 -8 58 -29 12
-14 19 -10 60 29 25 25 52 43 59 40 8 -3 17 -5 22 -5z m-674 -35 c12 -30 -5
-65 -31 -65 -26 0 -40 27 -30 60 8 24 53 28 61 5z m-146 -25 c44 -44 48 -120
9 -156 -17 -16 -18 -15 -7 13 21 56 -2 115 -58 150 -18 11 -17 12 9 12 15 1
36 -8 47 -19z m620 -59 c0 -33 1 -34 15 -15 13 18 14 17 15 -19 0 -46 -18 -82
-62 -124 -32 -31 -125 -93 -139 -93 -4 0 -12 13 -19 29 -11 27 -9 33 19 68 66
82 101 134 107 160 4 16 14 36 22 46 16 17 17 17 29 1 7 -10 13 -34 13 -53z
m-664 41 c33 -22 44 -94 21 -127 -19 -24 -60 -14 -75 20 -31 68 5 140 54 107z
m164 -61 c0 -6 -4 -13 -10 -16 -5 -3 -10 1 -10 9 0 9 5 16 10 16 6 0 10 -4 10
-9z m34 -155 c59 -28 132 -31 199 -9 31 11 57 19 57 17 0 -1 -17 -13 -37 -25
-51 -32 -158 -33 -223 -3 -49 23 -110 79 -110 102 0 8 17 -3 38 -25 21 -21 55
-47 76 -57z m-45 -17 c25 -16 39 -29 32 -29 -17 0 -69 28 -109 58 -25 19 -30
28 -21 38 9 11 15 9 32 -12 11 -15 41 -40 66 -55z m-74 2 c7 -12 -26 -31 -57
-32 -17 0 -19 -2 -8 -7 12 -6 4 -19 -37 -62 l-52 -54 6 39 c10 69 29 104 60
111 15 3 33 7 38 9 20 7 44 5 50 -4z m486 -74 l-61 -74 0 -183 0 -183 70 -83
c39 -45 70 -85 70 -88 0 -3 -99 -6 -220 -6 -121 0 -220 3 -220 8 0 4 16 19 34
35 35 27 37 27 183 27 l148 1 -67 64 -68 64 0 66 c0 53 6 78 29 125 l29 59
-24 32 c-32 44 -31 82 4 109 27 22 144 99 150 100 2 0 -24 -33 -57 -73z m-103
33 c9 -25 8 -31 -8 -40 -25 -13 -28 -13 -34 8 -3 9 -3 -6 0 -34 l6 -51 -111
-8 c-112 -7 -141 -17 -141 -51 0 -10 -12 -14 -42 -14 l-42 0 34 38 c21 22 15
18 -16 -11 l-51 -49 -48 36 c-25 20 -53 36 -61 36 -8 0 -14 4 -14 8 0 15 133
142 154 148 12 3 39 -2 60 -11 22 -9 72 -19 110 -21 60 -4 80 -1 126 20 71 31
66 31 78 -4z m-231 4 c-3 -3 -12 -4 -19 -1 -8 3 -5 6 6 6 11 1 17 -2 13 -5z
m153 -172 c0 -21 -6 -44 -12 -52 -11 -12 -10 -12 5 -1 11 9 17 27 17 52 0 26
4 39 14 39 27 0 37 -28 34 -96 -3 -68 -3 -68 -34 -71 -27 -3 -32 0 -41 29
l-11 33 -1 -33 -1 -33 -52 3 -53 3 -6 65 c-4 37 -3 70 3 77 9 11 40 17 111 21
25 2 27 -1 27 -36z m-157 -14 c-3 -24 0 -62 5 -85 11 -46 7 -51 -24 -29 -16
13 -17 18 -6 35 14 25 16 61 2 61 -11 0 -14 43 -3 53 19 20 30 5 26 -35z
m-243 10 c50 -35 58 -52 37 -87 -9 -16 -14 -36 -11 -45 3 -9 3 -28 0 -42 -6
-24 -8 -25 -20 -9 -11 15 -16 16 -32 6 -16 -10 -16 -12 -1 -7 22 7 23 -19 1
-28 -32 -12 -54 -5 -84 27 -27 27 -31 38 -27 73 5 49 60 134 86 134 10 0 33
-10 51 -22z m490 -29 c0 -11 -4 -17 -10 -14 -5 3 -10 13 -10 21 0 8 5 14 10
14 6 0 10 -9 10 -21z m-273 -15 c13 -35 -65 -56 -134 -38 -21 6 -21 7 -6 30
13 21 23 24 74 24 46 0 61 -4 66 -16z m-72 -54 c42 0 52 -4 60 -22 10 -22 15
-23 118 -22 59 1 107 -2 107 -6 0 -15 -43 -61 -68 -74 -15 -7 -47 -16 -72 -20
-44 -6 -46 -8 -72 -66 -25 -56 -29 -60 -60 -60 -39 0 -90 29 -113 64 -13 19
-15 37 -11 73 4 27 8 66 10 88 4 58 4 58 29 51 12 -3 45 -6 72 -6z m219 -172
c-55 -108 -105 -147 -147 -115 -15 11 -14 17 11 69 25 53 30 57 62 58 19 0 46
6 60 13 33 18 35 15 14 -25z m-280 -83 c18 -14 45 -25 60 -25 l27 0 -21 -30
c-25 -35 -61 -39 -90 -10 -11 11 -20 16 -20 12 0 -11 30 -37 53 -45 25 -9 21
-44 -8 -63 -35 -23 -66 -8 -100 50 -30 51 -27 77 15 136 19 27 23 28 37 15 8
-8 29 -26 47 -40z m141 -47 c31 -14 31 -22 2 -40 -15 -11 -30 -13 -47 -7 l-25
9 23 -16 c39 -29 22 -74 -28 -74 -36 0 -40 6 -27 43 11 33 57 97 69 97 4 0 19
-5 33 -12z"/>
<path d="M1946 2477 c-11 -8 -17 -22 -14 -38 2 -19 9 -24 32 -24 36 0 56 27
40 53 -15 22 -35 26 -58 9z m52 -20 c2 -12 -3 -17 -17 -17 -12 0 -21 6 -21 13
0 31 32 34 38 4z"/>
<path d="M2467 4212 c-34 -35 -34 -42 2 -76 24 -23 32 -26 49 -17 12 6 28 21
36 33 15 21 14 24 -16 55 -18 18 -35 33 -38 33 -3 0 -18 -13 -33 -28z"/>
<path d="M2440 4040 c0 -18 7 -20 60 -20 53 0 60 2 60 20 0 18 -7 20 -60 20
-53 0 -60 -2 -60 -20z"/>
<path d="M1546 3725 c-10 -27 -7 -80 6 -93 14 -14 76 -16 96 -3 9 5 12 25 10
57 l-3 49 -51 3 c-40 2 -53 -1 -58 -13z"/>
<path d="M990 3171 c-75 -24 -120 -49 -120 -65 0 -24 23 -24 70 0 105 52 199
55 291 8 58 -29 89 -73 89 -126 0 -71 -63 -100 -167 -79 -75 15 -83 14 -83 -8
0 -38 146 -55 219 -25 94 38 104 152 20 234 -77 75 -202 99 -319 61z"/>
<path d="M3805 3177 c-99 -33 -166 -103 -167 -177 -1 -89 54 -140 151 -140 58
0 138 17 147 32 14 23 -15 30 -71 18 -71 -15 -139 -6 -165 23 -31 33 -27 89
12 132 82 94 201 107 355 39 28 -12 54 -20 57 -16 17 17 -1 36 -61 64 -77 37
-190 47 -258 25z"/>
<path d="M759 3033 c-71 -59 -249 -237 -249 -249 0 -13 250 -258 280 -274 16
-9 22 -8 26 5 5 11 -33 53 -125 142 l-132 126 50 51 c28 28 87 83 130 121 74
64 94 95 72 109 -4 3 -28 -11 -52 -31z"/>
<path d="M1028 3014 c-8 -82 -26 -138 -59 -176 -27 -33 -28 -33 -56 -16 -103
64 -155 72 -200 34 -23 -20 -28 -32 -28 -69 0 -112 106 -128 237 -35 14 10 21
9 36 -6 31 -27 61 -107 70 -183 l7 -68 40 3 c22 2 58 13 80 25 40 22 88 82 82
101 -8 25 -36 15 -56 -19 -18 -31 -70 -65 -99 -65 -5 0 -12 24 -15 54 -6 61
-40 146 -67 171 -19 17 -18 18 11 55 34 42 59 115 59 172 0 21 2 38 5 38 2 0
23 -7 46 -16 26 -11 49 -30 65 -55 25 -41 41 -48 50 -25 18 46 -75 126 -155
134 l-48 4 -5 -58z m-184 -203 c42 -23 41 -34 -3 -59 -68 -39 -111 -26 -111
35 0 54 45 63 114 24z"/>
<path d="M4180 3049 c0 -6 59 -68 131 -138 l132 -126 -133 -128 c-88 -85 -130
-132 -126 -142 3 -8 10 -15 16 -15 15 0 290 270 290 286 0 19 -270 274 -291
274 -11 0 -19 -5 -19 -11z"/>
<path d="M1072 2817 l-32 -33 33 -32 c18 -18 38 -32 43 -32 15 0 54 44 54 61
0 14 -49 69 -61 69 -3 0 -19 -15 -37 -33z"/>
<path d="M1232 2841 c-9 -5 -12 -25 -10 -62 3 -46 6 -54 23 -54 16 0 21 8 23
39 4 43 -4 86 -16 86 -4 0 -13 -4 -20 -9z"/>
<path d="M3741 2837 c-13 -13 -14 -86 -2 -106 5 -8 16 -11 25 -8 12 5 16 20
16 61 0 55 -15 77 -39 53z"/>
<path d="M3857 2822 c-15 -15 -27 -32 -27 -37 0 -14 52 -65 66 -65 7 0 24 14
39 31 l26 32 -32 33 c-18 19 -36 34 -39 34 -3 0 -18 -13 -33 -28z"/>
<path d="M1125 2699 c-46 -11 -60 -22 -52 -42 4 -12 15 -12 65 -2 110 23 182
-6 182 -74 0 -50 -30 -94 -87 -128 -42 -24 -58 -28 -128 -28 -65 1 -93 6 -148
29 -52 21 -72 25 -80 17 -30 -30 127 -95 229 -94 70 1 166 38 207 81 106 110
44 255 -106 251 -23 -1 -60 -5 -82 -10z"/>
<path d="M3729 2698 c-89 -23 -121 -136 -62 -217 30 -40 118 -88 180 -99 94
-16 283 37 283 79 0 26 -17 24 -86 -8 -83 -39 -197 -40 -269 -2 -89 45 -122
132 -70 184 29 30 111 36 185 15 20 -6 32 -4 40 5 14 17 -5 31 -60 44 -54 13
-92 12 -141 -1z"/>
<path d="M939 2617 c-64 -38 -124 -114 -144 -181 -8 -27 -15 -86 -15 -130 1
-240 176 -426 400 -426 l70 0 0 -175 0 -175 170 0 170 0 0 -37 c0 -64 28 -173
56 -221 120 -204 407 -275 598 -147 52 35 116 116 116 148 0 26 -35 21 -48 -8
-21 -46 -92 -112 -145 -136 -66 -29 -195 -31 -272 -4 -166 57 -254 181 -255
356 0 70 -3 88 -16 93 -9 3 -87 6 -175 6 l-159 0 0 169 0 168 -97 5 c-187 9
-300 95 -354 269 -48 155 -3 306 116 385 52 35 66 56 46 68 -4 3 -32 -9 -62
-27z"/>
<path d="M1010 2320 c-22 -14 31 -114 77 -144 74 -49 193 -53 311 -12 l42 15
0 -229 0 -230 225 0 c124 0 225 -1 225 -3 0 -2 -8 -28 -17 -58 -10 -31 -17
-89 -17 -139 -1 -70 3 -92 22 -128 38 -71 162 -135 162 -83 0 12 -10 21 -27
26 -46 11 -90 52 -108 100 -22 56 -17 133 15 233 12 39 20 78 17 87 -6 13 -38
15 -233 15 l-227 0 5 215 c4 149 2 220 -6 229 -9 13 -22 11 -86 -11 -92 -32
-207 -36 -257 -10 -36 19 -69 61 -78 99 -8 29 -25 40 -45 28z"/>
<path d="M3963 2318 c-5 -7 -15 -28 -23 -46 -27 -70 -111 -109 -204 -97 -28 4
-84 18 -125 31 -41 12 -78 21 -83 18 -4 -3 -8 -106 -8 -230 l0 -224 -225 0
c-190 0 -227 -2 -231 -15 -3 -8 4 -43 16 -77 59 -175 29 -295 -87 -343 -37
-16 -45 -45 -13 -45 28 0 90 33 117 62 61 65 68 219 18 351 -7 16 8 17 219 17
l226 0 0 229 0 229 63 -20 c124 -40 254 -24 319 39 31 29 64 105 53 122 -8 14
-20 14 -32 -1z"/>
<path d="M905 2240 c-11 -18 5 -67 36 -109 62 -87 176 -128 322 -117 l87 7 0
-196 0 -195 194 0 194 0 -6 -85 c-6 -107 11 -193 52 -254 50 -73 171 -135 171
-87 0 13 -10 23 -30 29 -53 17 -96 58 -124 116 -23 50 -26 66 -24 156 2 55 4
116 5 135 l3 35 -197 3 -198 2 0 195 c0 222 12 201 -103 185 -81 -12 -180 1
-238 30 -42 22 -79 66 -103 123 -15 37 -29 46 -41 27z"/>
<path d="M4046 2197 c-52 -119 -158 -158 -363 -133 l-73 8 0 -196 0 -196 -187
0 c-104 0 -194 -4 -201 -9 -11 -7 -11 -19 -1 -70 14 -74 7 -191 -15 -243 -24
-56 -72 -105 -121 -124 -43 -16 -57 -36 -35 -49 16 -10 105 34 138 68 17 18
41 55 54 82 20 44 23 66 23 173 l0 122 193 0 192 0 0 193 0 194 113 -1 c134
-1 194 16 260 75 47 41 85 115 74 144 -11 28 -27 16 -51 -38z"/>
<path d="M1544 1926 c-3 -8 -4 -31 -2 -52 l3 -39 58 -3 57 -3 0 56 0 55 -55 0
c-38 0 -57 -4 -61 -14z"/>
<path d="M3344 1927 c-3 -8 -4 -32 -2 -53 l3 -39 55 0 55 0 0 50 0 50 -53 3
c-38 2 -54 -1 -58 -11z"/>
<path d="M2248 1640 c-50 -15 -87 -50 -118 -113 -39 -81 -46 -135 -26 -220 15
-65 47 -140 64 -151 4 -2 14 -1 22 4 11 7 8 20 -15 71 -55 124 -44 245 29 326
38 41 46 46 86 46 36 0 48 -5 68 -29 25 -29 26 -40 10 -194 -2 -19 2 -25 17
-25 41 0 55 175 18 233 -31 51 -92 71 -155 52z"/>
<path d="M2655 1636 c-54 -24 -69 -51 -73 -130 -5 -89 12 -159 36 -154 11 2
16 12 14 28 -17 165 -11 193 41 218 72 35 162 -45 187 -163 13 -61 -2 -142
-42 -224 -17 -36 -18 -45 -7 -52 40 -26 106 150 95 255 -16 161 -141 271 -251
222z"/>
<path d="M2447 1543 c-4 -3 -7 -12 -7 -20 0 -9 16 -13 58 -13 63 0 74 4 65 26
-5 15 -103 21 -116 7z"/>
<path d="M2292 1500 c-39 -24 -85 -115 -80 -157 3 -27 6 -28 77 -35 76 -8 146
-34 175 -67 16 -18 15 -21 -14 -67 -54 -85 -58 -143 -15 -184 26 -24 88 -30
124 -11 49 27 46 121 -8 196 l-30 42 32 31 c41 40 76 52 162 60 l70 7 -1 41
c0 23 -10 59 -21 80 -21 42 -77 87 -102 82 -26 -5 -18 -32 12 -46 33 -16 67
-67 67 -99 0 -20 -5 -23 -39 -23 -47 0 -113 -22 -164 -56 l-38 -25 -32 25
c-41 31 -116 56 -167 56 -31 0 -40 4 -40 18 0 28 38 82 70 100 33 19 41 52 13
52 -10 0 -33 -9 -51 -20z m258 -435 c0 -38 -16 -55 -50 -55 -50 0 -64 43 -34
103 31 60 36 62 61 20 12 -21 23 -52 23 -68z"/>
<path d="M2467 1432 c-15 -15 -27 -32 -27 -37 0 -14 52 -65 66 -65 7 0 24 14
39 31 l26 32 -32 33 c-18 19 -36 34 -39 34 -3 0 -18 -13 -33 -28z"/>
<path d="M2233 1103 c-7 -3 -13 -10 -13 -18 0 -20 260 -285 279 -285 21 0 281
263 281 284 0 37 -35 13 -153 -108 l-127 -131 -128 131 c-70 72 -133 129 -139
127z"/>
<path d="M380 457 l25 -13 3 -222 2 -222 60 0 60 0 0 110 c0 102 1 110 18 101
9 -5 44 -54 77 -110 l60 -100 67 -1 67 0 -85 131 c-47 72 -88 137 -90 144 -7
18 110 151 154 175 l37 19 -90 0 c-64 0 -84 -3 -67 -9 52 -21 37 -72 -47 -159
-31 -31 -66 -60 -78 -63 -23 -6 -23 -5 -23 102 l0 108 28 10 c21 8 1 11 -88
11 -99 1 -112 -1 -90 -12z"/>
<path d="M931 459 l26 -10 5 -189 c5 -162 9 -194 25 -222 17 -30 24 -33 71
-36 l51 -3 -14 35 c-11 27 -15 80 -15 219 0 193 1 199 45 210 11 2 -34 5 -100
5 -87 0 -113 -2 -94 -9z"/>
<path d="M1267 455 c20 -8 35 -23 39 -39 3 -13 4 -98 2 -188 -2 -135 -6 -169
-20 -191 -21 -31 -22 -37 -7 -37 5 0 17 17 26 38 13 28 18 80 21 215 4 175 5
178 29 197 l26 20 -74 0 c-72 -1 -73 -1 -42 -15z"/>
<path d="M1490 457 l25 -13 3 -222 2 -222 60 0 60 0 0 84 0 83 64 5 c110 9
176 62 183 147 5 60 -22 105 -80 131 -35 17 -66 20 -192 20 -127 0 -146 -2
-125 -13z m227 -3 c31 -8 53 -62 53 -128 0 -93 -38 -146 -105 -146 l-25 0 0
133 c0 74 3 137 7 140 8 8 40 9 70 1z"/>
<path d="M2000 457 l25 -13 3 -222 2 -222 60 0 60 0 0 105 0 105 29 0 c30 0
71 -38 71 -66 0 -7 5 -16 10 -19 6 -4 10 30 10 94 0 61 -4 101 -10 101 -5 0
-10 -7 -10 -16 0 -32 -40 -74 -71 -74 l-30 0 3 106 c3 124 8 131 83 120 59 -9
92 -40 101 -95 11 -66 24 -47 24 34 l0 75 -192 0 c-162 0 -189 -2 -168 -13z"/>
<path d="M2497 463 c42 -8 44 -21 41 -247 -2 -139 1 -216 7 -216 6 0 9 63 7
175 -2 96 0 175 5 175 4 -1 69 -79 143 -175 131 -169 136 -174 173 -174 l37
-1 0 213 c0 116 4 217 8 223 4 6 16 16 27 22 16 9 6 11 -55 11 -73 0 -74 0
-43 -14 19 -8 35 -23 38 -37 3 -13 4 -82 3 -154 l-3 -131 -135 168 -135 168
-70 -1 c-38 0 -60 -3 -48 -5z"/>
<path d="M3068 463 c39 -8 43 -32 40 -253 l-3 -210 58 0 57 0 0 213 c0 252 0
252 79 245 60 -6 86 -26 113 -86 40 -88 33 -264 -14 -340 l-20 -32 31 0 c21 0
43 11 70 36 103 92 101 300 -3 379 -62 47 -97 54 -271 53 -88 0 -150 -3 -137
-5z"/>
<path d="M3682 458 c37 -13 40 -35 36 -266 l-3 -192 58 0 57 0 0 106 0 107 31
-7 c17 -3 35 -6 40 -6 15 0 33 -44 49 -120 l15 -75 62 -3 61 -3 -18 72 c-21
82 -48 116 -99 125 -35 7 -35 7 -11 17 71 29 87 40 104 68 10 17 18 49 18 71
-1 49 -38 93 -91 108 -49 14 -346 12 -309 -2z m248 -16 c45 -36 43 -175 -3
-207 -12 -8 -38 -15 -59 -15 l-38 0 0 108 c0 71 4 112 12 120 18 18 63 15 88
-6z"/>
<path d="M4390 448 c-5 -13 -47 -119 -93 -235 -81 -207 -83 -213 -60 -213 14
0 22 4 18 10 -4 6 3 42 15 81 l21 70 81 -3 81 -3 26 -77 26 -78 66 0 65 0 -63
162 c-128 327 -117 303 -146 306 -20 3 -29 -2 -37 -20z m19 -176 c17 -46 31
-88 31 -93 0 -5 -32 -9 -71 -9 -53 0 -70 3 -66 13 2 6 19 49 37 95 18 46 34
82 35 80 2 -2 18 -41 34 -86z"/>
<path d="M2350 88 c-7 -22 -19 -52 -27 -65 -15 -23 -15 -23 18 -23 l34 0 0 65
c0 36 -3 65 -7 65 -4 0 -12 -19 -18 -42z"/>
</g>
</svg>
